<?xml version="1.0" encoding="UTF-8"?>
<svg id="_图层_1" data-name="图层 1" xmlns="http://www.w3.org/2000/svg" viewBox="0 0 265.97 574.67">
  <defs>
    <style>
      .cls-1 {
        fill: #fff;
        stroke: #231815;
        stroke-miterlimit: 10;
        stroke-width: 2px;
      }
    </style>
  </defs>
  <path class="cls-1" d="M10.58,101.54c-2.5.27-4.86,2.16-5.65,4.46-.52,1.51-.26,2.89,0,4.31.48,2.59,1.41,3.31,1.93,5.21.51,1.84.1,3.63-.74,7.14-.58,2.41-1.17,4.21-3.27,10.27-1.75,5.05-1.98,5.66-1.79,6.84.66,3.99,4.77,6.26,5.95,6.84,4.66,2.29,9.16.67,10.12.3,1.32-.51,5.06-1.97,6.4-5.65,1.18-3.23-.16-6.36-.74-7.74-1.61-3.77-3.5-3.5-4.76-7.14-.3-.88-1.48-4.28,0-7.29,1.01-2.05,2.21-1.8,2.98-3.57,1.58-3.65-1.95-8.31-2.53-9.08-1.33-1.75-4.03-5.33-7.89-4.91Z"/>
  <path class="cls-1" d="M4.03,153.29c-.84,1.49-.3,2.41,1.79,11.16,2,8.4,2.27,10.73,1.79,13.54-.52,3.01-1.22,2.66-2.08,6.25-.74,3.05-2.46,10.21,1.34,14.88,2.45,3.01,6.12,3.65,8.18,4.02,5.09.9,13-.03,15.62-5.06,1.61-3.08.58-6.48-.74-10.86-2.2-7.28-5.01-7.62-6.25-13.69-.32-1.58-.26-4.77-.15-11.16.12-6.85.5-9.36-1.34-11.16-1.49-1.46-3.51-1.54-6.25-1.64-1.87-.07-9.61-.36-11.9,3.72Z"/>
  <path class="cls-1" d="M6.67,212.04c-2.18,3.66-.87,8.05-.15,10.56,0,0,1.3,1.17,4.76,20.23.97,5.33,1.27,9.42,1.23,13.78-.03,3.48.15,7.14-1.26,13.92-.93,4.48-1.62,5.57-2.95,10.38-2.33,8.39-.72,12.79-.15,14.13.45,1.08,2.05,4.87,4.76,5.21,1.13.14,1.58-.42,4.46-1.79,3.29-1.56,5.16-2.44,7.29-2.53,2.49-.1,2.61.98,6.55,1.93,3.14.76,6.52,1.57,9.22,0,3.55-2.07,3.96-7.12,4.02-8.03.25-4.14-1.77-5.68-4.91-12.65-2.63-5.83-3.86-10.64-4.91-14.73-.81-3.15-1.84-7.26-2.38-12.79-.53-5.44-.3-9.43,0-14.73.34-6.05.52-9.07,1.49-12.05,1.15-3.52,2.16-4.38,1.93-6.55-.51-4.89-6.41-7.88-7.59-8.48-5.95-3.02-12.81-2.06-17.41.6-1.34.77-2.91,1.71-4.02,3.57Z"/>
  <path class="cls-1" d="M11.93,309.83c-2.42,4.06-2.49,7.93-2.52,13.08-.06,9.44,2.14,16.64,2.75,18.59,3.94,12.53,5.91,18.8,11.01,33.27,6.61,18.74,9.93,28.25,10.56,35.57.28,3.33.51,8.46,1.84,16.06,2.66,15.28,5.94,18.69,8.72,20.19.74.4,3.74,1.9,7.11,1.15,2.17-.49,3.93-2.17,7.34-5.51,4.93-4.82,7.39-7.23,7.57-7.57,3.21-6.08.69-13.23-.23-15.83-.84-2.37-2.78-5.33-6.65-11.24-4.25-6.49-4.68-8-6.09-11.81-1.52-4.11-6.97-20.26-13.19-40.28-1.72-5.53-3.03-18.18-1.5-20.9,2.37-4.23,4.44-4.07,6.78-8.93,2.44-5.05,1.54-11.55-1.38-16.29-4.03-6.54-11.88-9.67-19.05-8.49-.4.07-8.68,1.56-13.08,8.95Z"/>
  <path class="cls-1" d="M85.82,20.73c-2.79,1.18-4.12,3.57-4.75,4.75-2.49,4.64-.11,6.78-1.58,12.33-.69,2.58-2.86,5.71-7.22,11.98-2.76,3.97-4.16,5.52-4.4,8.45-.02.29-.37,5.25,2.47,7.04,1.38.87,2.38.27,6.87-.18,5.5-.55,8.25-.82,10.92.35,2.89,1.27,3.21,3,5.46,2.99,2.03,0,4.27-1.43,4.93-3.35.69-2.02-.84-3.24-2.11-7.04-.14-.43-1.65-5.1-1.06-10.39.31-2.73.83-2.56,2.64-9.16,1.19-4.33,1.78-6.53,1.58-8.28-.16-1.42-.94-6.11-5.11-8.63-.48-.29-4.49-2.62-8.63-.88Z"/>
  <path class="cls-1" d="M66.57,70.69c-1.75,2.27.57,5.64,1.76,11.45.28,1.34.54,3.03.18,13.03-.47,13.11-.71,19.66-1.41,22.89-2.55,11.75-6.69,21.31-6.69,21.31-1.53,3.53-3.52,7.57-1.75,10.04,1.33,1.86,4.28,2.1,6.51,2.29,3.62.3,4.23-.75,8.63-.88,1.4-.04,4.6-.11,8.45.88,3.13.81,4.24,1.69,6.87,1.58,1.43-.06,3.48-.14,4.75-1.41,1.64-1.64,1.26-4.51-.35-11.27-2.08-8.73-2.9-10.06-3.7-14.26-.4-2.09-.5-6.03-.7-13.91-.37-14.07.08-16.7.53-18.67,1.4-6.15,2.64-9.16,2.64-9.16,1.61-3.9,2.7-4.89,2.47-7.04-.35-3.17-3.27-6.08-6.34-7.04-2.98-.93-3.61.75-8.1.18-3.71-.48-4.23-1.74-7.57-1.76-1.75,0-4.79-.03-6.16,1.76Z"/>
  <path class="cls-1" d="M60.76,162.15c-1.92,2.79-2.14,5.69-1.9,12.77.32,9.64,1.1,14.84,1.58,20.78.18,2.18.17,20.48-.38,28.21-.69,9.7-.91,16.44-1.73,22.99-.95,7.62-5,10.35-5.49,15.11-.14,1.38-.35,3.77,1.06,5.99,1.6,2.53,4.64,3.78,7.22,3.87,3.71.14,4.4-2.19,8.81-2.29,2.68-.06,4.86.75,6.16,1.23,3.88,1.44,4.29,2.96,6.69,3.35,2.92.47,6.49-.84,7.75-2.99,2.47-4.21,4.54-11.23.88-18.84-3.45-7.18-4.18-24.86-4.1-29.28.14-7.85.51-16.82.1-23.04-.35-5.31.29-12.58,1.51-15.39,1.05-2.43,6.02-9.41,5.66-18.76-.23-6.1-7.02-8.78-8.1-9.33-5.65-2.88-11.16-1.52-14.44-.7-3.31.82-8.33,2.06-11.27,6.34Z"/>
  <path class="cls-1" d="M61.26,275.67c-6.31,3.58-7.53,10.72-7.73,11.91-.52,3.07.02,4.95.84,9.62,1.33,7.59.46,5.82,2.09,17.14,2.64,18.3,6.83,36.17,7.53,39.09,3.63,15.35,4.15,19.31,4.8,26.47.53,5.83.7,8.5.21,20.36-.04,1.05-1.13,12.17-.65,20.23.5,8.46,2.2,10.29,4.41,12.79,2.75,3.11,6.99,3.42,8.78,3.55,1.19.09,7.81.57,11.71-3.55,3.09-3.27,3.04-7.96,2.51-13.8-1.23-13.47-4.16-23.04-7.32-34.91-2.95-11.11-4.44-33.4-5.97-47.21-1.87-16.93-2.64-22.89-.51-27.62.92-2.03,2.26-5.16,4.39-8.78,1.8-3.06,3.92-6.66,3.76-10.66-.29-7.45-8.34-13.26-14.84-15.26-2.48-.76-8.37-2.57-14,.63Z"/>
  <path class="cls-1" d="M138.1,2.63c-1.72,1.45-2.29,3.59-2.96,6.06-.73,2.72-.72,4.83-.74,6.21-.08,5.33-.15,9.69-1.48,13.46-2.06,5.82-5.31,5.1-7.4,11.54-.5,1.56-2.2,6.8.3,9.47.28.3,1.1,1.09,5.03,1.63,7.85,1.08,9.91-1.32,14.2.59,1.92.86,2.89,1.96,4.59,1.63,2.13-.41,3.33-2.68,3.55-3.11.45-.85,1.72-3.66-1.04-11.98-2.07-6.26-3.14-5.74-3.55-9.17-.72-6.04,2.18-11.21,2.37-11.54,1.88-3.25,3.34-3.33,3.7-5.62.54-3.47-2.22-7.08-5.03-8.88-3.36-2.15-8.54-2.82-11.54-.3Z"/>
  <path class="cls-1" d="M127.89,56.65c-3.04,2.86.17,8.11.15,17.45-.02,6.5-1.59,11.48-3.11,16.27-2.91,9.22-4.37,13.83-6.21,17.6-.58,1.18-2.11,4.23-1.48,7.84.17.96.58,3.28,2.37,4.44,1.21.78,2.21.48,6.51.15,3.32-.26,4.98-.39,6.95-.3,1.82.08,4.32.2,7.25,1.19,3.81,1.29,4.63,2.81,6.51,2.37,2.26-.53,3.4-3.27,3.7-3.99,1.54-3.72.26-7.05-1.04-11.83-1.07-3.95-1.8-8.6-3.25-17.9-1.09-6.99-1.63-10.54-1.04-13.17,1.07-4.74,3.23-6.12,3.25-10.8.01-1.68.04-5.85-2.81-8.58-2.99-2.87-7.46-2.53-11.54-2.22-3.37.26-5.05.38-6.21,1.48Z"/>
  <path class="cls-1" d="M114.55,128.09c-2.75,3.79-1.02,7.39-.43,18.43,0,0,.55,10.32-.72,21.17-1.57,13.48-4.39,13.87-5.18,26.5-.61,9.74-.14,16.56-.14,16.56.49,7.16,1.39,9.59.14,14.11-1.32,4.77-3.06,4.74-4.75,10.51-1.09,3.72-2.66,9.08.14,12.67,2.01,2.57,5.35,3.06,6.05,3.17,3.67.54,4.69-1.38,9.36-1.73,4.16-.31,7.5.9,8.71,1.36,5.01,1.88,5.22,4.2,9.14,4.84.5.08,4.88.73,7.78-1.73,3.09-2.62,2.95-7.45,2.59-11.95-1.01-12.74-3.61-20.94-5.18-28.51-1.55-7.49-1.76-12.82-2.16-23.47-.63-16.71-.95-25.06,2.74-32.55,2.14-4.36,4.32-6.49,5.04-11.66.28-1.99,1.31-9.42-3.74-15.7-4.64-5.77-11.29-6.68-13.25-6.91-1.06-.13-11.67-1.26-16.13,4.9Z"/>
  <path class="cls-1" d="M106.95,258.2c-2.12,2.37-2.94,5.15-2.94,5.15-.76,2.59-.07,3.44-.92,5.7-.91,2.43-2.22,2.81-3.86,5.15-1.73,2.47-2.2,4.8-2.76,7.54-1.55,7.67.44,16.65,1.47,22.62.33,1.94.84,8.03,1.84,20.23.66,8.02.82,17.84,1.1,37.15.39,26.56.02,30.07-1.47,34.39-.06.17-2.35,5.59-3.68,13.24-.6,3.44.08,12.43.29,14.07.27,2.06-.76,6,3.75,10.2,2.42,2.26,4.93,3.04,9.93,4.6,6.12,1.91,9.42,2.94,11.95,1.29,2.07-1.35,1.49-3.08,4.41-8.64,2.6-4.93,3.67-4.74,4.6-7.17,2.22-5.83-2.53-10.68-5.52-19.49-1.3-3.84-1.6-9.24-2.21-20.04-.43-7.75-.97-17.93,0-31.26,1.69-23.28,2.53-34.92,8.75-46.38,2.74-5.04,7.07-11.37,9.45-21.85,2.1-9.23.81-13.45,0-15.45-3.06-7.58-10.29-10.73-12.69-11.77-6.89-3-17.24-4.03-21.52.74Z"/>
  <path class="cls-1" d="M217.38,40.09c-.78.52-3.68,2.46-3.82,5.25-.11,2.28,1.72,3.11,2.39,6.2.55,2.54-.1,4.65-.64,6.36-1.63,5.26-4.46,5.27-6.04,10.02-.9,2.7-1.52,7.29.64,9.07,1.42,1.17,2.58-.07,7.32.64,1.91.29,4.34.65,7,2.07,2.32,1.24,2.71,2.15,4.45,2.39,1.58.22,3.83-.18,5.09-1.59,1.17-1.31,1.12-3.11-.64-12.09-1.35-6.89-1.96-9.11-.8-11.93.88-2.12,1.67-1.95,2.39-3.98,1.17-3.3.61-8.18-2.7-11.45-4.31-4.25-10.93-3.43-14.63-.95Z"/>
  <path class="cls-1" d="M207.2,83.45c-1.41,1.36-1.75,3.1-2.23,5.73-.81,4.51-.15,7.44.16,10.98.48,5.44.95,10.69-1.27,15.75-2.01,4.59-4.29,4.59-6.84,10.82-1.14,2.8-2.02,5.04-1.43,7.79,1.06,4.93,5.92,7.34,6.2,7.48,3.11,1.48,4.01.08,8.09,1.57,3.63,1.33,3.58,2.69,7.03,3.83,1.36.45,5.66,1.88,8.27.16,1.81-1.19,2.42-3.63,2.07-13.84-.26-7.36-.86-14.25-.95-23.07-.05-4.95.09-7.23,1.27-9.86,1.23-2.72,2.67-3.81,3.18-6.84.17-1,.67-3.96-.8-6.52-1.8-3.13-5.49-3.82-10.66-4.77-5.12-.95-9.44-1.75-12.09.8Z"/>
  <path class="cls-1" d="M194.98,148.08c-4.01,2.49-5.41,6.66-6.31,9.33-1.79,5.32-1.13,9.08-.9,15.12.21,5.63-.21,10.17-1.03,19.26-1.13,12.4-1.69,18.6-4.78,25.72-1.94,4.47-5.88,11.74-10.73,20.68-.58,1.08-2.75,5.06-2.71,10.34.01,2.13.03,5.69,2.33,7.5,1.42,1.12,2.65.73,8.65.67,5.1-.06,7.65-.08,9.83.37,4.49.93,4.67,2.37,9.18,3.23,3.18.61,6.39,1.22,8.79-.26,3.83-2.36,3.73-8.87,3.49-17.71-.22-8.19-1.19-9-1.68-17.06-.45-7.35-.01-12.66.69-21.18.86-10.45,1.29-15.67,3.06-19.79,2.46-5.72,4.45-6.18,7.11-13.05,2.3-5.93,3.92-10.12,2.33-14.48-2.69-7.34-12.41-9.32-14.86-9.82-3.03-.62-7.98-1.63-12.44,1.14Z"/>
  <path class="cls-1" d="M169.42,263.36c-1.09.78-2.95,3.14-4.12,5.82-1.53,3.51-1.44,12.22-.38,22.45.3,2.87-.07,8.67-.79,20.26-.95,15.15-2.58,27.53-3.76,35.35-1.56,10.37-2.98,19.75-6.21,32.19-5.33,20.53-8.7,33.49-16.16,39.81-.91.77-4.01,4.48-10.21,11.89-1.15,1.38-2.32,2.82-2.33,4.78,0,3.51,3.73,6.64,6.98,8.01,4.06,1.71,8.56,1.19,13.31.65,3.24-.37,4.86-.9,7.11,0,2.16.86,2.39,2.03,5.04,4.27,1.93,1.63,5.07,4.28,9.05,4.65,2.64.25,6.8-.39,9.05-3.1,3.55-4.28-.23-10.66-1.94-21.97-.54-3.6-.39-9.43-.08-21.07.41-15.53.77-29.21,3.57-46.92,2.32-14.72,5.23-25.26,5.85-27.49,5.4-19.35,8.1-29.02,14.08-35.19,1.55-1.6,4.88-4.72,6.57-9.96.47-1.45,2.09-6.72.13-12.8-2.95-9.12-11.6-12.66-13.18-13.31-.76-.31-12.42-4.88-21.59,1.68Z"/>
  <path class="cls-1" d="M252.46,205.58c-.43.17-3.62,1.53-5.07,4.87-1.5,3.45.44,5.44,0,9.94-.26,2.65-1.39,4.67-3.65,8.72-4.85,8.68-7.84,9.37-9.94,15.82-1.56,4.81-.9,7.53-.61,8.52.74,2.48,2.82,6.25,5.68,6.49,2.45.21,3.11-2.38,6.89-2.84,2.32-.28,4.23.42,5.27.81,3.49,1.29,3.74,3.04,7.1,4.06,1.21.37,3.64,1.1,4.87,0,1.24-1.12.75-3.68-.61-7.91-3.64-11.37-6.15-11.91-6.29-16.83-.05-1.85,1.11-5.43,3.45-12.57,1.56-4.76,2.35-6.37,2.43-9.53.06-2.14.21-7.81-3.24-9.73-2.45-1.36-5.45-.14-6.29.2Z"/>
  <path class="cls-1" d="M238.69,264.19c-2.49,3.69-.31,8.33.55,12.84,1.49,7.85-1.24,14.29-4.6,22.24-2.65,6.27-6.28,11.42-16.02,27.78-.3.51-1.2,2.05-1.62,4.26-.78,4.12.27,9.81,3.65,11.56,2.07,1.07,3.23-.27,8.06-.49,1.38-.06,5.86-.26,10.23,1.43,6.22,2.41,6.95,6.61,12.54,7.16,1.67.17,3.28.33,4.66-.61,3.68-2.49,1.52-9.9.39-23-.34-3.95-.42-8.89-.59-18.77-.34-20.21.81-23.16,2.03-25.35,3.24-5.82,7.85-7.91,6.89-11.56-.93-3.56-6.38-5.61-7.1-5.88-2.87-1.08-3.33-.22-6.46-1.4-4.06-1.53-4.6-3.49-7.12-3.47-2.28.02-4.39,1.64-5.47,3.24Z"/>
  <path class="cls-1" d="M220.82,349.27c-1.54.92-5.03,3-6.59,7.01-1.17,3.01-.46,5.08.28,11.08.26,2.07,1.14,9.21.88,14.61-.33,6.82-2.54,11.84-4.1,15.41-4.15,9.44-10.13,15.57-14.31,19.78-8.81,8.87-13.03,9.32-15.01,15.85-1.71,5.65-.51,11.78-.42,12.2.41,1.98.93,4.49,2.68,7.13,1.35,2.03,2.88,3.3,11.07,8.02,5.26,3.03,7.91,4.55,8.84,4.49,5.04-.32,7.88-7.68,13.05-18.66,5.91-12.55-.01,1.73,14.03-27.21,1.94-4,6.01-13.09,14.17-31.28,4.7-10.48,7.03-15.84,6.31-21.74-.25-2.05-1.49-12.28-10.52-17.25-6.98-3.85-15.06-2.59-20.34.56Z"/>
  <path class="cls-1" d="M134.57,451.67c-.99.9-3.35,3.03-3.95,6.45-.54,3.05.6,5.5,1.4,7.15,2.7,5.6,7.9,8.39,10.66,9.82,4.08,2.12,4.95,1.44,8.7,3.79,2.64,1.66,3.4,2.74,6.59,5.61,6.13,5.5,9.19,8.26,12.34,8.7,5.69.8,10.62-3.65,12.91-5.71,2.18-1.96,6.05-5.45,6.87-11.27.84-5.98-1.79-12.62-6.59-15.71-4.53-2.92-6.85,0-15.01-2.38-5.82-1.7-5.13-3.32-14.59-7.15-7.52-3.05-10.89-3.21-13.84-2.36-2.97.85-4.96,2.58-5.5,3.07Z"/>
  <path class="cls-1" d="M136.82,477.27c-3.44.97-5.46,3.37-6.13,4.26-2.44,3.23-1.74,5.78-2.72,9.53-1.45,5.53-5.33,8.89-12.54,15.15-5.96,5.17-8.93,6.04-10.51,10.4-1.19,3.29-1.13,7.3-1.13,7.59.05,2.59.09,4.27,1.03,5.85,2.79,4.7,10.99,4.16,11.92,4.09,3.82-.3,6.62-1.94,12.07-5.21,5.3-3.18,9.6-5.77,14.23-10.51,4.18-4.28,4.97-6.59,8.94-8.25,2.82-1.18,4.2-.76,7.34-2.42,1.96-1.04,5.64-3,6.47-6.13.84-3.16-1.93-6.41-7.49-12.77-7.72-8.82-12-10.45-13.28-10.9-1.95-.68-4.8-1.63-8.17-.68Z"/>
  <path class="cls-1" d="M88.1,439.29c-1.11.83-2.29,5.06-1.83,7.28.69,3.32,2.87,3.73,4.85,7.53,2.03,3.89,1.95,7.68,1.92,9.19-.1,4.75-1.9,5.35-3.7,12.77-1.05,4.33-1.67,7.01-1.02,10.47.32,1.71,1.16,6.18,4.72,8.68,2.38,1.67,5.41,1.52,11.36,1.15,7.13-.44,11.23-.74,15.83-3.32,2.67-1.49,6.23-3.49,7.15-7.15.55-2.18-.15-4.37-1.56-8.76-1.46-4.56-2.79-6.2-2.33-9.31.21-1.47.57-1.52,1.34-3.89.37-1.14,1.72-5.3,1.46-9.35-.09-1.43-.73-8.2-5.41-11.22-3.15-2.04-4.55-.05-11.75-1.4-5.34-1-5.85-1.78-12.03-2.75-6.75-1.05-7.77-.86-9,.06Z"/>
  <path class="cls-1" d="M74.84,443.3c-3.86-1.02-6.93.02-11.61,1.6-2.99,1.01-9.75,3.39-12.63,9.14-1.29,2.59-1,4.25-.87,4.79.54,2.31,2.51,3.65,3.34,4.21,10.34,7.05,15.51,10.57,16.98,12.34,4.12,4.94,3.71,9.48,9.14,14.37,2.31,2.08,3.65,2.4,4.5,2.03,1.02-.44,1.33-1.89,1.5-2.94.98-5.98-.66-9.19-.47-14.57.13-3.97,1.07-3.43,1.59-9.2.39-4.4.62-6.87-.15-9.72-1.26-4.73-5.2-10.43-11.32-12.05Z"/>
  <path class="cls-1" d="M38.57,466.83c-.14.09-2.32,1.47-2.83,3.99-.42,2.05.62,3.85,2.71,7.34,5.22,8.75,6.09,9.96,6.44,12.5.35,2.57-.42,2.15-.26,6.31.15,3.85.31,7.8,2.83,11.21.74,1,3.41,4.6,7.22,4.77,2.8.12,3.93-1.71,12.24-9.28,5.79-5.28,6.71-5.72,7.34-7.73,1.76-5.56-2.35-11.31-3.48-12.88-2.72-3.8-3.77-2.65-13.79-9.92-4.3-3.12-7.9-6.09-13.04-6.99-1.85-.32-3.72-.35-5.39.68Z"/>
  <path class="cls-1" d="M84.76,499.55c-3.9.85-6.4,1.4-9.28,3.33-4.87,3.26-6.81,7.8-7.35,9.1-.65,1.59-1.15,2.79-1.12,4.47.08,4.24,3.42,7.18,4.64,8.26,3.74,3.29,7.9,3.89,12.35,4.52,6.06.87,11.1,1.59,14.14-1.32,2.67-2.55.71-4.95,3.77-9.8,2.7-4.27,5.07-3.77,6.95-7.73,1.22-2.57,2.35-7.22.16-9.9-1.5-1.84-5.09-1.88-12.2-1.88-4.73,0-7.85.02-12.06.94Z"/>
  <path class="cls-1" d="M30.51,509.94c-1.26.39-1.87.84-2.66,2.75-.89,2.16-.66,3.95-1.03,6.75-.09.71-.47,2.53-3.69,5.36-6.59,5.8-11.97,4.28-14.41,8.04-1.89,2.91-.09,6.04,1.45,12.29,4.09,16.56,2.15,21.46,2.63,28.55h33.79c.63-2.75,4.11-10.55,5.84-13.4,1.1-1.8,4.32-7.04,6.96-11.77,1.38-2.48,1.55-10.88-.17-13.15-2.28-3-13,.51-16.76-5.63-1.14-1.87-1.32-4.6-1.68-10.05-.32-4.97.27-6.52-1.12-8.15-2.11-2.49-6.47-2.39-9.16-1.56Z"/>
  <path class="cls-1" d="M66.6,532.35c-2.51,2-3.42,5.19-3.88,10.46-.63,7.21-1.82,21.56,3.68,30.87h81.16c2.31-9.27,11.95-14.96,13.94-30.08,1.18-8.96-5.24-17.48-12.35-18.29-3.31-.38-14.32,4.89-17.23,6.64-9.1,5.46-14.49,7.77-20.03,8.7-2.52.42-7.75,1.67-14.53-.53-7.53-2.44-7.84-5.8-15.64-8.17-3.23-.98-10.59-3.22-15.14.4Z"/>
</svg>